<?xml version="1.0" standalone="no"?>
<!DOCTYPE svg PUBLIC "-//W3C//DTD SVG 20010904//EN"
 "http://www.w3.org/TR/2001/REC-SVG-20010904/DTD/svg10.dtd">
<svg version="1.0" xmlns="http://www.w3.org/2000/svg"
 width="269.000000pt" height="269.000000pt" viewBox="0 0 269.000000 269.000000"
 preserveAspectRatio="xMidYMid meet">
<metadata>
Created by potrace 1.11, written by Peter Selinger 2001-2013
</metadata>
<g transform="translate(0.000000,269.000000) scale(0.100000,-0.100000)"
fill="#000000" stroke="none">
<path d="M261 1898 c-59 -21 -187 -127 -203 -168 -6 -14 -12 -101 -14 -193 -2
-164 -12 -390 -19 -445 -2 -15 -6 -75 -10 -134 l-7 -107 33 -20 c32 -20 74
-30 145 -35 43 -4 74 21 74 59 1 14 1 69 1 123 1 133 14 193 61 287 52 103
174 289 222 339 35 37 38 39 54 22 25 -24 23 -165 -5 -581 -11 -169 -10 -195
12 -211 24 -17 76 -32 134 -38 71 -7 81 11 81 147 2 240 12 373 33 413 20 39
118 146 189 209 120 105 133 100 133 -57 -1 -109 -13 -342 -21 -383 -7 -35 -6
-229 1 -257 8 -30 45 -51 116 -67 77 -17 133 4 201 77 49 52 143 188 160 232
9 23 11 21 29 -36 23 -74 85 -172 131 -207 97 -74 229 -92 360 -48 177 59 300
191 441 476 68 137 104 273 77 290 -17 11 -37 -12 -67 -78 -131 -289 -258
-464 -380 -524 -46 -22 -71 -27 -129 -27 -63 0 -76 3 -108 28 -20 15 -45 37
-56 48 -27 29 -69 121 -76 168 l-7 40 35 0 c56 0 184 37 250 72 145 77 227
194 234 331 3 61 0 81 -19 118 -87 173 -413 143 -568 -53 -69 -87 -122 -230
-133 -358 -6 -79 -123 -278 -210 -358 -77 -71 -91 -55 -81 91 3 50 8 103 10
117 2 14 7 52 10 85 5 63 14 145 21 207 14 132 14 255 -1 291 -21 51 -82 90
-140 90 -46 0 -70 -15 -161 -100 -35 -33 -180 -204 -223 -264 l-30 -41 4 129
c2 70 0 144 -5 163 -15 57 -98 121 -147 114 -7 -1 -22 -2 -34 -3 -32 -2 -138
-116 -196 -211 -28 -47 -84 -143 -123 -215 l-71 -130 6 115 c4 63 9 118 12
123 11 18 44 145 49 192 18 143 -1 181 -75 153z m1884 -134 c51 -33 57 -167
13 -262 -24 -51 -78 -106 -128 -132 -30 -15 -162 -60 -177 -60 -12 0 8 140 28
206 52 168 128 258 222 263 10 1 29 -6 42 -15z"/>
</g>
</svg>
