<?xml version="1.0" encoding="utf-8"?>
<!-- Generator: Adobe Illustrator 23.0.3, SVG Export Plug-In . SVG Version: 6.00 Build 0)  -->
<svg version="1.1" id="Layer_1" xmlns="http://www.w3.org/2000/svg" xmlns:xlink="http://www.w3.org/1999/xlink" x="0px" y="0px"
	 viewBox="0 0 165.9 146.8" style="enable-background:new 0 0 165.9 146.8;" xml:space="preserve">
<style type="text/css">
	.st0{fill:#00778C;}
	.st1{fill:#E5B9D6;}
	.st2{fill:#FFFFFF;}
	.st3{fill:#454985;}
	.st4{fill:#E7B6D5;}
	.st5{fill:#C3E8F2;}
	.st6{fill:#3D456F;}
	.st7{fill:#FFFFFF;stroke:#DFF0F5;stroke-miterlimit:10;}
	.st8{fill:#3D456F;stroke:#DFF0F5;stroke-miterlimit:10;}
	.st9{fill:#FFFFFF;stroke:#DFF0F5;stroke-width:1.3779;stroke-linecap:round;stroke-linejoin:round;stroke-miterlimit:10;}
	.st10{fill:none;stroke:#454985;stroke-width:0.9347;stroke-linecap:round;stroke-linejoin:round;stroke-miterlimit:10;}
	.st11{fill:#F5DBEA;}
	.st12{fill:#47494A;}
	.st13{font-family:'Roboto-Medium';}
	.st14{font-size:16.7454px;}
	.st15{font-size:22.5556px;}
	.st16{letter-spacing:1;}
	.st17{font-size:26.5416px;}
</style>
<g>
	<path class="st0" d="M16.6,108.9c0,0-4,30.1,23.8,30.5l-4.3-7.3c0,0,8.1-2.2,18.2,5.9c14.7,11.7,34.4-4.4,35.6-12.7
		c0,0-11.8,6.3-19.7-1.5S54,91.5,37.6,96.3C16.2,102.7,16.6,108.9,16.6,108.9z"/>
	<path class="st1" d="M121.1,133.7c0,0-4.2,8.5-17.3,6.1s-14.9,3.9-10.8,7c0,0-19.4-1.9-12.2-15c7.2-13.1,40.9-0.6,40.9-0.6
		L121.1,133.7z"/>
	<g>
		<path class="st2" d="M133.9,74.3c-2.2,1.6-6.4,7.5-4.8,9.7s8.5,0,10.7-1.7c2.2-1.6,2.7-4.7,1.1-7
			C139.3,73.1,136.1,72.6,133.9,74.3z"/>
		<path class="st3" d="M132.4,77.3c-1.5,1.1-4.4,5.1-3.3,6.6s5.8,0,7.3-1.1c1.5-1.1,1.8-3.2,0.7-4.7S133.9,76.2,132.4,77.3z"/>
	</g>
	<path class="st4" d="M130.7,87.3c0,0,7.7-14.7,21.8-7.2c0,0-11.1-0.5-8,11.7c3.1,12.2,1.3,35.2-10.1,39
		c-11.4,3.8-18.5-2.6-18.5-2.6L130.7,87.3z"/>
	<polygon class="st0" points="131.1,91.5 165.9,100.3 126.1,112.5 	"/>
	<g>
		<polygon class="st5" points="26.3,54.5 22,40.6 20.4,35.7 27.8,33.3 30,38 36.2,51.3 		"/>
		<polygon class="st6" points="22,40.6 20.4,35.7 27.8,33.3 30,38 		"/>
	</g>
	<g>
		<polygon class="st7" points="19.3,106.6 6.2,100.3 1.6,98.1 4.8,91.1 9.7,92.7 23.7,97.2 		"/>
		<polygon class="st8" points="6.2,100.3 1.6,98.1 4.8,91.1 9.7,92.7 		"/>
	</g>
	<path class="st7" d="M32.3,134c-11.1-1.6-18.8-11.9-17.1-23l8.3-54.2c0.3-1.9,0.8-3.6,1.6-5.2c4.2-9.3,15-14.4,25.2-10.7
		c9.6,3.5,20.6,11.1,30.2,26.9c0,0,0.3-37.8,35.4-26.9c35,10.9,5.9,90.2,5.9,90.2S77.8,140.6,32.3,134z"/>
	<g>
		<g>
			<path class="st9" d="M113.9,48.1c0,0,13.5,0.3,11.1-8.4s-12.8,2.4-12.8,2.4"/>
			<path class="st3" d="M113.7,44.3c0,0,4-5.5,5.8-2.6C121.2,44.5,113.7,44.3,113.7,44.3z"/>
		</g>
		<g>
			<path class="st9" d="M109.7,75.3c0,0,13,3.8,8.1,11.3c-4.9,7.5-11.5-6.1-11.5-6.1"/>
			<path class="st3" d="M108.3,78.9c0,0,2.2,6.4,4.7,4.2C115.6,80.9,108.3,78.9,108.3,78.9z"/>
		</g>
	</g>
	<g>
		<path class="st10" d="M119.4,97.7c-2-0.3-3.5-1.6-3.3-2.8c0.2-1.2,2-2,4-1.7"/>
		<path class="st10" d="M123.2,72.9c-2-0.3-3.5-1.6-3.3-2.8c0.2-1.2,2-2,4-1.7"/>
	</g>
	<g>
		<path class="st2" d="M121.3,140.3c-1.6-2.2-3.9-9.1-1.7-10.7c2.2-1.6,8.1,2.6,9.7,4.8c1.6,2.2,1.1,5.3-1.1,7
			C126,143,122.9,142.5,121.3,140.3z"/>
		<path class="st3" d="M120.8,136.9c-1.1-1.5-2.7-6.2-1.1-7.3c1.5-1.1,5.5,1.8,6.6,3.3c1.1,1.5,0.8,3.6-0.7,4.7
			C124,138.7,121.9,138.4,120.8,136.9z"/>
	</g>
	<path class="st11" d="M29.3,110.1c-4.9-0.8-9.4-2.8-13.1-5.6l7.3-47.6c0.3-1.9,0.8-3.6,1.6-5.2c4.2-1.4,8.8-1.9,13.4-1.2
		c15.9,2.4,26.8,17.8,24.3,34.3C60.2,101.2,45.2,112.5,29.3,110.1z"/>
	<g>
		<polyline class="st9" points="60.8,127.6 45.9,135 36.7,139.6 30.9,127.8 39.3,124 57.4,115.7 		"/>
		<polygon class="st6" points="36.7,139.6 30.9,127.8 39.3,124 45.9,135 		"/>
	</g>
	<ellipse class="st3" cx="96.5" cy="51.5" rx="3.9" ry="3.1"/>
	<g>
		<text transform="matrix(1 0 0 1 74.9444 37.9451)" class="st12 st13 st14">z</text>
		<text transform="matrix(1 0 0 1 60.8048 27.1091)" class="st12 st13 st15 st16">z</text>
		<text transform="matrix(1 0 0 1 46.086 14.657)" class="st12 st13 st17 st16">z</text>
	</g>
</g>
</svg>
