<?xml version="1.0" encoding="utf-8"?>
<!-- Generator: Adobe Illustrator 23.0.3, SVG Export Plug-In . SVG Version: 6.00 Build 0)  -->
<svg version="1.1" id="Layer_1" xmlns="http://www.w3.org/2000/svg" xmlns:xlink="http://www.w3.org/1999/xlink" x="0px" y="0px"
	 viewBox="0 0 136.1 149.7" style="enable-background:new 0 0 136.1 149.7;" xml:space="preserve">
<style type="text/css">
	.st0{fill:#C3E8F2;}
	.st1{fill:#3D456F;}
	.st2{fill:#FFFFFF;stroke:#DFF0F5;stroke-width:1.3779;stroke-linecap:round;stroke-linejoin:round;stroke-miterlimit:10;}
	.st3{fill:#E5B9D6;}
	.st4{fill:#00778C;}
	.st5{fill:#FFFFFF;}
	.st6{fill:#454985;}
	.st7{fill:#E7B6D5;}
	.st8{fill:#FFFFFF;stroke:#DFF0F5;stroke-miterlimit:10;}
	.st9{fill:#F5DBEA;}
	.st10{fill:#F594A3;}
</style>
<g>
	<g>
		<polygon class="st0" points="100.2,147.3 114.7,147.3 119.9,147.3 120,139.6 114.9,138.9 100.3,136.9 		"/>
		<polygon class="st1" points="114.7,147.3 119.9,147.3 120,139.6 114.9,138.9 		"/>
	</g>
	<g>
		<polyline class="st2" points="108.9,108.4 125.2,106.6 128.4,98.2 132.1,88.6 119.9,84 116.9,92.7 114.5,99.5 105.7,100.4 		"/>
		<polygon class="st1" points="132.1,88.6 119.9,84 116.9,92.7 128.4,98.2 		"/>
	</g>
	<path class="st3" d="M38.1,39.2c0,0-9,2.8-8.6,16.2c0.4,13.4-6.1,14.2-8.6,9.6c0,0-1.1,19.5,13,14.4S40.6,39,40.6,39L38.1,39.2z"/>
	<path class="st4" d="M36.3,143.8c0,0-29.8,6-32-21.8l7.6,3.8c0,0,1.7-8.2-7-17.8C-7.7,94.1,7.1,73.4,15.2,71.6
		c0,0-5.5,12.2,2.8,19.6s33.2,14.2,29.5,30.8C42.5,143.8,36.3,143.8,36.3,143.8z"/>
	<g>
		<path class="st5" d="M98.8,35.5c-1.9,1.9-8.4,5.2-10.3,3.3s1.3-8.4,3.3-10.3s5.1-1.9,7,0S100.7,33.6,98.8,35.5z"/>
		<path class="st6" d="M95.5,36.6c-1.3,1.3-5.7,3.6-7,2.2s0.9-5.7,2.2-7c1.3-1.3,3.5-1.3,4.8,0C96.8,33.1,96.8,35.3,95.5,36.6z"/>
	</g>
	<path class="st7" d="M85.4,36.7c0,0,15.7-5.4,10.4-20.5c0,0-1.2,11.1-12.8,6.2s-34.6-6.6-40.1,4.1s-0.2,18.7-0.2,18.7L85.4,36.7z"
		/>
	<polygon class="st4" points="81.3,35.7 77.9,0 59.7,37.4 	"/>
	<path class="st8" d="M97,89.4c14.2,11.9,20,24,22,34c2.1,10.5-4.4,20.4-14.1,23.2c-0.1,0-0.2,0.1-0.3,0.1c-1.7,0.5-3.5,0.7-5.4,0.7
		H44.4c-11.2,0-20.3-9.2-20.2-20.4C24.6,81,40.6,39,40.6,39s82.9-16.8,88.3,19.5C134.3,94.8,97,89.4,97,89.4z"/>
	<g>
		<g>
			<path class="st2" d="M121.6,59.3c0,0,1.8-13.4,10-9.7c8.2,3.7-4.3,12.3-4.3,12.3"/>
			<path class="st6" d="M125.3,60.1c0,0,6-3.1,3.5-5.3C126.2,52.6,125.3,60.1,125.3,60.1z"/>
		</g>
		<g>
			<path class="st2" d="M94,59.3c0,0-1.8-13.4-10-9.7s4.3,12.3,4.3,12.3"/>
			<path class="st6" d="M90.3,60.1c0,0-6-3.1-3.5-5.3C89.4,52.6,90.3,60.1,90.3,60.1z"/>
		</g>
	</g>
	<g>
		<ellipse class="st6" cx="75.7" cy="46.4" rx="2.3" ry="3.7"/>
		<ellipse class="st6" cx="100.7" cy="46.4" rx="2.3" ry="3.7"/>
	</g>
	<g>
		<path class="st5" d="M31.6,38c1.9,1.9,8.4,5.2,10.3,3.3c1.9-1.9-1.3-8.4-3.3-10.3c-1.9-1.9-5.1-1.9-7,0C29.6,32.9,29.6,36,31.6,38
			z"/>
		<path class="st6" d="M34.9,39c1.3,1.3,5.7,3.6,7,2.2c1.3-1.3-0.9-5.7-2.2-7c-1.3-1.3-3.5-1.3-4.8,0C33.5,35.5,33.5,37.7,34.9,39z"
			/>
	</g>
	<path class="st9" d="M104.9,146.5c-0.1,0-0.2,0.1-0.3,0.1c-1.7,0.5-3.5,0.7-5.4,0.7H48.8c-2.3-4.1-3.6-8.8-3.6-13.8
		c0-16.1,13.5-29.2,30.2-29.2c16.7,0,30.2,13.1,30.2,29.2C105.6,137.4,106,142.6,104.9,146.5z"/>
	<g>
		<polyline class="st2" points="44.3,98.4 33.2,110.5 36.4,119 39.9,128.7 52.2,124 48.7,115.5 46,108.8 52,102.4 		"/>
		<polygon class="st1" points="39.9,128.7 52.2,124 48.7,115.5 36.4,119 		"/>
	</g>
	<path class="st6" d="M61.8,71.6c1.2,5.9,4.6,11.9,13.8,12.3c1.6,0.1,3.2,0,4.6-0.2c14.3-1.8,16.7-15.5,16.7-15.5
		s-25.1,7.3-35.1-8.1C61.8,60.1,60.7,65.8,61.8,71.6z"/>
	<path class="st10" d="M61.8,71.6c1.2,5.9,4.6,11.9,13.8,12.3c1.6,0.1,3.2,0,4.6-0.2C78.5,78.5,74,71.4,61.8,71.6z"/>
	<g>
		<g>
			<polygon class="st5" points="42.7,147.3 63.3,147.3 68.5,147.3 68.7,139.6 63.5,138.9 41.8,135.9 			"/>
			<polygon class="st1" points="63.3,147.3 68.5,147.3 68.7,139.6 63.5,138.9 			"/>
		</g>
	</g>
</g>
</svg>
