<?xml version="1.0" encoding="utf-8"?>
<!-- Generator: Adobe Illustrator 23.0.3, SVG Export Plug-In . SVG Version: 6.00 Build 0)  -->
<svg version="1.1" id="Layer_1" xmlns="http://www.w3.org/2000/svg" xmlns:xlink="http://www.w3.org/1999/xlink" x="0px" y="0px"
	 viewBox="0 0 173.6 228.4" style="enable-background:new 0 0 173.6 228.4;" xml:space="preserve">
<style type="text/css">
	.st0{fill:none;stroke:#DFF0F5;stroke-width:3;stroke-miterlimit:10;}
	.st1{fill:#222222;}
	.st2{font-family:'Lato-Regular';}
	.st3{font-size:21px;}
	.st4{fill:#C3E8F2;}
	.st5{fill:#3D456F;}
	.st6{fill:#FFFFFF;stroke:#DFF0F5;stroke-width:1.3779;stroke-linecap:round;stroke-linejoin:round;stroke-miterlimit:10;}
	.st7{fill:#E5B9D6;}
	.st8{fill:#00778C;}
	.st9{fill:#FFFFFF;}
	.st10{fill:#454985;}
	.st11{fill:#E7B6D5;}
	.st12{fill:#FFFFFF;stroke:#DFF0F5;stroke-miterlimit:10;}
	.st13{fill:#F5DBEA;}
	.st14{fill:#F594A3;}
</style>
<g>
	<path class="st0" d="M169.6,169.5c0-18-14.6-32.5-32.5-32.5c-1.2,0-2.4,0.1-3.5,0.2c-5.4-10.5-16.3-17.8-29-17.8
		c-9.5,0-18.1,4.1-24.1,10.7c-5.4-5-12.7-8.1-20.6-8.1c-13.3,0-24.6,8.5-28.7,20.4c-15.8,2.2-28,15.8-28,32.2
		c0,17.4,13.7,31.6,30.9,32.5c5.9,7.8,15.3,12.8,25.9,12.8c5.4,0,10.5-1.3,14.9-3.6c4.2,5.1,10.5,8.4,17.6,8.4
		c7.3,0,13.7-3.4,17.9-8.7c3.9,1.6,8.1,2.5,12.5,2.5c13.7,0,25.5-8.5,30.3-20.6C162.9,192.3,169.6,181.7,169.6,169.5z"/>
	<text transform="matrix(1 0 0 1 56.5681 183.2283)" class="st1 st2 st3">design</text>
</g>
<g>
	<polygon class="st4" points="120.1,150.2 134.6,150.2 139.8,150.2 139.9,142.5 134.8,141.8 120.2,139.8 	"/>
	<polygon class="st5" points="134.6,150.2 139.8,150.2 139.9,142.5 134.8,141.8 	"/>
</g>
<g>
	<polyline class="st6" points="127.8,111.3 144.1,109.5 147.3,101.1 151,91.5 138.8,86.9 135.8,95.6 133.4,102.4 124.6,103.3 	"/>
	<polygon class="st5" points="151,91.5 138.8,86.9 135.8,95.6 147.3,101.1 	"/>
</g>
<path class="st7" d="M62,42.1c0,0-9,2.8-8.6,16.2c0.4,13.4-6.1,14.2-8.6,9.6c0,0-1.1,19.5,13,14.4s6.7-40.4,6.7-40.4L62,42.1z"/>
<path class="st8" d="M60.2,146.7c0,0-29.8,6-32-21.8l7.6,3.8c0,0,1.7-8.2-7-17.8C16.2,97,31,76.3,39.1,74.5c0,0-5.5,12.2,2.8,19.6
	s33.2,14.2,29.5,30.8C66.4,146.7,60.2,146.7,60.2,146.7z"/>
<g>
	<path class="st9" d="M122.7,38.4c-1.9,1.9-8.4,5.2-10.3,3.3s1.3-8.4,3.3-10.3c2-1.9,5.1-1.9,7,0C124.6,33.3,124.6,36.5,122.7,38.4z
		"/>
	<path class="st10" d="M119.4,39.5c-1.3,1.3-5.7,3.6-7,2.2s0.9-5.7,2.2-7c1.3-1.3,3.5-1.3,4.8,0S120.7,38.2,119.4,39.5z"/>
</g>
<path class="st11" d="M109.3,39.6c0,0,15.7-5.4,10.4-20.5c0,0-1.2,11.1-12.8,6.2s-34.6-6.6-40.1,4.1s-0.2,18.7-0.2,18.7L109.3,39.6z
	"/>
<polygon class="st8" points="105.2,38.6 101.8,2.9 83.6,40.3 "/>
<path class="st12" d="M105.4,92.3c13.4,11.9,18.9,24,20.7,34c2,10.5-4.1,20.4-13.3,23.2c-0.1,0-0.2,0.1-0.3,0.1
	c-1.6,0.5-3.3,0.7-5.1,0.7H55.8c-10.6,0-19.1-9.2-19-20.4c0.4-46,15.5-88,15.5-88s78.1-16.8,83.2,19.5S105.4,92.3,105.4,92.3z"/>
<g>
	<g>
		<path class="st6" d="M134.5,62.2c0,0,1.8-13.4,10-9.7c8.2,3.7-4.3,12.3-4.3,12.3"/>
		<path class="st10" d="M138.2,63c0,0,6-3.1,3.5-5.3C139.1,55.5,138.2,63,138.2,63z"/>
	</g>
	<g>
		<path class="st6" d="M106.9,62.2c0,0-1.8-13.4-10-9.7s4.3,12.3,4.3,12.3"/>
		<path class="st10" d="M103.2,63c0,0-6-3.1-3.5-5.3C102.3,55.5,103.2,63,103.2,63z"/>
	</g>
</g>
<g>
	<ellipse class="st10" cx="84.6" cy="49.3" rx="2.3" ry="3.7"/>
	<ellipse class="st10" cx="109.6" cy="49.3" rx="2.3" ry="3.7"/>
</g>
<g>
	<path class="st9" d="M55.5,40.9c1.9,1.9,8.4,5.2,10.3,3.3c1.9-1.9-1.3-8.4-3.3-10.3c-1.9-1.9-5.1-1.9-7,0
		C53.5,35.8,53.5,38.9,55.5,40.9z"/>
	<path class="st10" d="M58.8,41.9c1.3,1.3,5.7,3.6,7,2.2c1.3-1.3-0.9-5.7-2.2-7c-1.3-1.3-3.5-1.3-4.8,0
		C57.4,38.4,57.4,40.6,58.8,41.9z"/>
</g>
<path class="st13" d="M124.1,149.4c-0.1,0-0.2,0.1-0.3,0.1c-1.6,0.5-3.3,0.7-5.1,0.7H71.3c-2.2-4.1-3.4-8.8-3.4-13.8
	c0-16.1,12.7-29.2,28.5-29.2s28.5,13.1,28.5,29.2C124.8,140.3,125.2,145.5,124.1,149.4z"/>
<g>
	<polyline class="st6" points="68.2,101.3 57.1,113.4 60.3,121.9 63.8,131.6 76.1,126.9 72.6,118.4 69.9,111.7 75.9,105.3 	"/>
	<polygon class="st5" points="63.8,131.6 76.1,126.9 72.6,118.4 60.3,121.9 	"/>
</g>
<g>
	<path class="st10" d="M80.7,74.5c1.2,5.9,4.6,11.9,13.8,12.3c1.6,0.1,3.2,0,4.6-0.2c14.3-1.8,16.7-15.5,16.7-15.5
		S90.7,78.4,80.7,63C80.7,63,79.6,68.7,80.7,74.5z"/>
	<path class="st14" d="M80.7,74.5c1.2,5.9,4.6,11.9,13.8,12.3c1.6,0.1,3.2,0,4.6-0.2C97.4,81.4,92.9,74.3,80.7,74.5z"/>
</g>
<polygon class="st9" points="66.6,150.2 87.2,150.2 92.4,150.2 92.6,142.5 87.4,141.8 65.7,138.8 "/>
<polygon class="st5" points="87.2,150.2 92.4,150.2 92.6,142.5 87.4,141.8 "/>
</svg>
