<?xml version="1.0" encoding="utf-8"?>
<!-- Generator: Adobe Illustrator 23.0.3, SVG Export Plug-In . SVG Version: 6.00 Build 0)  -->
<svg version="1.1" id="Layer_1" xmlns="http://www.w3.org/2000/svg" xmlns:xlink="http://www.w3.org/1999/xlink" x="0px" y="0px"
	 viewBox="0 0 177 243" style="enable-background:new 0 0 177 243;" xml:space="preserve">
<style type="text/css">
	.st0{fill:none;stroke:#F5DBEA;stroke-width:3;stroke-miterlimit:10;}
	.st1{fill:#222222;}
	.st2{font-family:'Lato-Regular';}
	.st3{font-size:21px;}
	.st4{fill:#E5B9D6;}
	.st5{fill:#00778C;}
	.st6{fill:#FFFFFF;}
	.st7{fill:#454985;}
	.st8{fill:#FFFFFF;stroke:#DFF0F5;stroke-width:1.3779;stroke-linecap:round;stroke-linejoin:round;stroke-miterlimit:10;}
	.st9{fill:#3D456F;}
	.st10{fill:#E7B6D5;}
	.st11{fill:#C3E8F2;}
	.st12{fill:#FFFFFF;stroke:#DFF0F5;stroke-miterlimit:10;}
	.st13{fill:#3D456F;stroke:#DFF0F5;stroke-miterlimit:10;}
	.st14{fill:#F5DBEA;}
	.st15{fill:#F594A3;}
</style>
<g>
	<path class="st0" d="M170.5,182.5c0-18-14.6-32.5-32.5-32.5c-1.2,0-2.4,0.1-3.5,0.2c-5.4-10.5-16.3-17.8-29-17.8
		c-9.5,0-18.1,4.1-24.1,10.7c-5.4-5-12.7-8.1-20.6-8.1c-13.3,0-24.6,8.5-28.7,20.4c-15.8,2.2-28,15.8-28,32.2
		c0,17.4,13.7,31.6,30.9,32.5c5.9,7.8,15.3,12.8,25.9,12.8c5.4,0,10.5-1.3,14.9-3.6c4.2,5.1,10.5,8.4,17.6,8.4
		c7.3,0,13.7-3.4,17.9-8.7c3.9,1.6,8.1,2.5,12.5,2.5c13.7,0,25.5-8.5,30.3-20.6C163.8,205.3,170.5,194.7,170.5,182.5z"/>
	<text transform="matrix(1 0 0 1 24.2851 196.212)" class="st1 st2 st3">misc interests</text>
</g>
<g>
	<path class="st4" d="M116.4,44.3c0,0,9,2.8,8.6,16.2s6.1,14.2,8.6,9.6c0,0,1.1,19.5-13,14.4s-6.8-40.4-6.8-40.4L116.4,44.3z"/>
	<path class="st5" d="M118.2,148.9c0,0,29.8,6,32-21.8l-7.6,3.8c0,0-1.7-8.2,7-17.8c12.6-13.9-2.2-34.6-10.3-36.4
		c0,0,5.5,12.2-2.8,19.6c-8.3,7.4-33.2,14.2-29.4,30.8C112,148.9,118.2,148.9,118.2,148.9z"/>
	<g>
		<path class="st6" d="M55.7,40.6c1.9,1.9,8.4,5.2,10.3,3.3s-1.3-8.4-3.3-10.3s-5.1-1.9-7,0C53.8,35.5,53.8,38.7,55.7,40.6z"/>
		<path class="st7" d="M59,41.7c1.3,1.3,5.7,3.6,7,2.2c1.3-1.4-0.9-5.7-2.2-7c-1.3-1.3-3.5-1.3-4.8,0S57.7,40.4,59,41.7z"/>
	</g>
	<g>
		<polyline class="st8" points="51.6,101.9 35.3,104.7 25.1,106.4 27.4,119.3 36.4,117.5 55.9,113.5 		"/>
		<polygon class="st9" points="25.1,106.4 27.4,119.3 36.4,117.5 35.3,104.7 		"/>
	</g>
	<path class="st10" d="M69.1,41.8c0,0-15.7-5.4-10.4-20.5c0,0,1.2,11.1,12.8,6.2c11.6-4.9,34.6-6.6,40.1,4.1s0.2,18.7,0.2,18.7
		L69.1,41.8z"/>
	<polygon class="st5" points="73.2,40.8 76.6,5.1 94.8,42.5 	"/>
	<polygon class="st11" points="70.9,149 70.6,163.5 70.5,168.7 62.7,168.7 62.1,163.5 60.5,148.9 	"/>
	<polygon class="st9" points="70.6,163.5 70.5,168.7 62.7,168.7 62.1,163.5 	"/>
	<g>
		<polygon class="st12" points="105.1,149 104.9,163.5 104.8,168.7 97,168.7 96.4,163.5 94.8,148.9 		"/>
		<polygon class="st13" points="104.9,163.5 104.8,168.7 97,168.7 96.4,163.5 		"/>
	</g>
	<path class="st12" d="M130.2,132c0.1,11.2-8.9,20.4-20.2,20.4H55.3c-1.9,0-3.7-0.3-5.4-0.7C40,149,33.4,139,35.5,128.4
		c2-10,7.8-22,22-34c0,0-37.4,5.4-32-30.9c5.5-36.2,88.3-19.4,88.3-19.4S129.9,86.1,130.2,132z"/>
	<g>
		<g>
			<path class="st8" d="M32.9,64.4c0,0-1.8-13.4-10-9.7S27.2,67,27.2,67"/>
			<path class="st7" d="M29.2,65.2c0,0-6-3.1-3.5-5.3C28.3,57.7,29.2,65.2,29.2,65.2z"/>
		</g>
		<g>
			<path class="st8" d="M60.5,64.4c0,0,1.8-13.4,10-9.7S66.2,67,66.2,67"/>
			<path class="st7" d="M64.2,65.2c0,0,6-3.1,3.5-5.3C65.1,57.7,64.2,65.2,64.2,65.2z"/>
		</g>
	</g>
	<g>
		<ellipse class="st7" cx="78.8" cy="51.5" rx="2.3" ry="3.7"/>
		<ellipse class="st7" cx="53.8" cy="51.5" rx="2.3" ry="3.7"/>
	</g>
	<g>
		<path class="st6" d="M122.9,43.1c-1.9,1.9-8.4,5.2-10.3,3.3s1.3-8.4,3.3-10.3c1.9-1.9,5.1-1.9,7,0C124.9,38,124.9,41.1,122.9,43.1
			z"/>
		<path class="st7" d="M119.6,44.1c-1.3,1.3-5.7,3.6-7,2.2c-1.3-1.3,0.9-5.7,2.2-7c1.3-1.3,3.5-1.3,4.8,0
			C121,40.6,121,42.8,119.6,44.1z"/>
	</g>
	<path class="st14" d="M107.1,138.6c0,5-1.3,9.7-3.6,13.8H55.3c-1.9,0-3.7-0.3-5.4-0.7c-2-3.9-3.2-8.4-3.2-13.1
		c0-16.1,13.5-29.2,30.2-29.2C93.5,109.4,107.1,122.5,107.1,138.6z"/>
	<g>
		<polyline class="st8" points="120.1,104.6 123.2,120.9 125.1,131 112.2,133.4 110.8,124.3 107.8,104.6 		"/>
		<polygon class="st9" points="125.1,131 112.2,133.4 110.8,124.3 123.2,120.9 		"/>
	</g>
	<g>
		<path class="st7" d="M92.7,76.7c-1.2,5.9-4.6,11.9-13.8,12.3c-1.6,0.1-3.2,0-4.6-0.2C60,87,57.6,73.3,57.6,73.3s25.1,7.3,35.1-8.1
			C92.7,65.2,93.8,70.9,92.7,76.7z"/>
		<path class="st15" d="M92.7,76.7c-1.2,5.9-4.6,11.9-13.8,12.3c-1.6,0.1-3.2,0-4.6-0.2C76,83.6,80.5,76.5,92.7,76.7z"/>
	</g>
</g>
</svg>
