<?xml version="1.0" encoding="utf-8"?>
<!-- Generator: Adobe Illustrator 23.0.3, SVG Export Plug-In . SVG Version: 6.00 Build 0)  -->
<svg version="1.1" id="Layer_1" xmlns="http://www.w3.org/2000/svg" xmlns:xlink="http://www.w3.org/1999/xlink" x="0px" y="0px"
	 viewBox="0 0 173.2 240.6" style="enable-background:new 0 0 173.2 240.6;" xml:space="preserve">
<style type="text/css">
	.st0{fill:none;stroke:#3D456F;stroke-width:3;stroke-miterlimit:10;}
	.st1{fill:#222222;}
	.st2{font-family:'Lato-Regular';}
	.st3{font-size:21px;}
	.st4{fill:#E5B9D6;}
	.st5{fill:#00778C;}
	.st6{fill:#FFFFFF;}
	.st7{fill:#454985;}
	.st8{fill:#FFFFFF;stroke:#DFF0F5;stroke-width:1.3779;stroke-linecap:round;stroke-linejoin:round;stroke-miterlimit:10;}
	.st9{fill:#3D456F;}
	.st10{fill:#E7B6D5;}
	.st11{fill:#C3E8F2;}
	.st12{fill:#FFFFFF;stroke:#DFF0F5;stroke-miterlimit:10;}
	.st13{fill:#3D456F;stroke:#DFF0F5;stroke-miterlimit:10;}
	.st14{fill:none;stroke:#454985;stroke-width:0.9347;stroke-linecap:round;stroke-miterlimit:10;}
	.st15{fill:#F5DBEA;}
	.st16{fill:#F594A3;}
</style>
<g>
	<path class="st0" d="M170.4,182.2c0-18-14.6-32.5-32.5-32.5c-1.2,0-2.4,0.1-3.5,0.2c-5.4-10.5-16.3-17.8-29-17.8
		c-9.5,0-18.1,4.1-24.1,10.7c-5.4-5-12.7-8.1-20.6-8.1c-13.3,0-24.6,8.5-28.7,20.4c-15.8,2.2-28,15.8-28,32.2
		c0,17.4,13.7,31.6,30.9,32.5c5.9,7.8,15.3,12.8,25.9,12.8c5.4,0,10.5-1.3,14.9-3.6c4.2,5.1,10.5,8.4,17.6,8.4
		c7.3,0,13.7-3.4,17.9-8.7c3.9,1.6,8.1,2.5,12.5,2.5c13.7,0,25.5-8.5,30.3-20.6C163.7,205,170.4,194.4,170.4,182.2z"/>
	<text transform="matrix(1 0 0 1 26.1676 195.9191)" class="st1 st2 st3">programming</text>
</g>
<g>
	<path class="st4" d="M64,42.5c0,0-9,2.8-8.6,16.2c0.4,13.4-6.1,14.2-8.6,9.6c0,0-1.1,19.5,13,14.4s6.7-40.4,6.7-40.4L64,42.5z"/>
	<path class="st5" d="M66.2,147.1c0,0-27.5,12.9-36.2-13.5l8.3,1.9c0,0-0.3-8.4-11.1-15.6c-15.6-10.6-6.1-34.2,1.3-37.9
		c0,0-2.5,13.2,7.4,18.4s35.7,5.8,35.9,22.9C72.2,145.6,66.2,147.1,66.2,147.1z"/>
	<g>
		<path class="st6" d="M124.7,38.8c-1.9,1.9-8.4,5.2-10.3,3.3s1.3-8.4,3.3-10.3s5.1-1.9,7,0S126.6,36.9,124.7,38.8z"/>
		<path class="st7" d="M121.4,39.9c-1.3,1.3-5.7,3.6-7,2.2s0.9-5.7,2.2-7c1.3-1.3,3.5-1.3,4.8,0S122.7,38.6,121.4,39.9z"/>
	</g>
	<polyline class="st8" points="125.5,96 139.3,86.8 147.9,81 155.1,92 147.3,96.8 130.4,107.3 	"/>
	<polygon class="st9" points="147.9,81 155.1,92 147.3,96.8 139.3,86.8 	"/>
	<path class="st10" d="M111.3,40c0,0,15.7-5.4,10.4-20.5c0,0-1.2,11.1-12.8,6.2s-34.5-6.6-40.1,4.1s-0.2,18.7-0.2,18.7L111.3,40z"/>
	<polygon class="st5" points="107.2,39 103.8,3.3 85.6,40.7 	"/>
	<polygon class="st11" points="109.5,149.9 113.8,163.9 115.3,168.8 122.7,166.7 121.9,161.6 119.5,147 	"/>
	<polygon class="st9" points="113.8,163.9 115.3,168.8 122.7,166.7 121.9,161.6 	"/>
	<g>
		<polygon class="st12" points="75.5,147.4 72.3,161.6 71.1,166.6 78.6,168.5 80.4,163.6 85.6,149.9 		"/>
		<polygon class="st13" points="72.3,161.6 71.1,166.6 78.6,168.5 80.4,163.6 		"/>
	</g>
	<path class="st12" d="M50.1,130.2c-0.1,11.2,8.9,20.4,20.2,20.4h54.8c1.9,0,3.7-0.3,5.4-0.7c9.9-2.7,16.5-12.7,14.4-23.3
		c-2-10-7.8-22-22-34c0,0,37.4,5.4,32-30.9c-5.5-36.2-88.4-19.4-88.4-19.4S50.5,84.3,50.1,130.2z"/>
	<g>
		<g>
			<path class="st8" d="M140.4,49.8c0,0,1.8-13.4,10-9.7s-4.3,12.3-4.3,12.3"/>
			<path class="st7" d="M144.1,50.7c0,0,6-3.1,3.5-5.3C145,43.1,144.1,50.7,144.1,50.7z"/>
		</g>
		<g>
			<path class="st8" d="M112.8,49.8c0,0-1.8-13.4-10-9.7s4.3,12.3,4.3,12.3"/>
			<path class="st7" d="M109.1,50.7c0,0-6-3.1-3.5-5.3C108.2,43.1,109.1,50.7,109.1,50.7z"/>
		</g>
	</g>
	<g>
		<path class="st14" d="M91.7,42.7c0,2.1,1,3.7,2.3,3.7s2.3-1.7,2.3-3.7"/>
		<path class="st14" d="M116.7,42.7c0,2.1,1,3.7,2.3,3.7s2.3-1.7,2.3-3.7"/>
	</g>
	<g>
		<path class="st6" d="M57.5,41.3c1.9,1.9,8.4,5.2,10.3,3.3s-1.3-8.4-3.3-10.3c-1.9-1.9-5.1-1.9-7,0C55.5,36.2,55.5,39.3,57.5,41.3z
			"/>
		<path class="st7" d="M60.8,42.3c1.3,1.3,5.7,3.6,7,2.2c1.3-1.3-0.9-5.7-2.2-7c-1.3-1.3-3.5-1.3-4.8,0C59.4,38.8,59.4,41,60.8,42.3
			z"/>
	</g>
	<path class="st15" d="M73.3,136.8c0,5,1.3,9.7,3.6,13.8h48.2c1.9,0,3.7-0.3,5.4-0.7c2-3.9,3.2-8.4,3.2-13.1
		c0-16.1-13.5-29.2-30.2-29.2C86.9,107.6,73.3,120.7,73.3,136.8z"/>
	<polyline class="st8" points="67.5,95.7 57,82.9 50.4,74.9 40.4,83.3 46.4,90.2 59.5,105.2 	"/>
	<polygon class="st9" points="50.4,74.9 40.4,83.3 46.4,90.2 57,82.9 	"/>
	<g>
		<path class="st7" d="M87.8,64.6c1.2,5.9,4.6,11.9,13.8,12.3c1.6,0.1,3.2,0,4.6-0.2c14.3-1.8,16.7-15.5,16.7-15.5
			s-25.1,7.3-35.1-8.1C87.7,53.1,86.6,58.8,87.8,64.6z"/>
		<path class="st16" d="M87.8,64.6c1.2,5.9,4.6,11.9,13.8,12.3c1.6,0.1,3.2,0,4.6-0.2C104.5,71.5,99.9,64.4,87.8,64.6z"/>
	</g>
</g>
</svg>
