<?xml version="1.0" encoding="utf-8"?>
<!-- Generator: Adobe Illustrator 23.0.3, SVG Export Plug-In . SVG Version: 6.00 Build 0)  -->
<svg version="1.1" id="Layer_1" xmlns="http://www.w3.org/2000/svg" xmlns:xlink="http://www.w3.org/1999/xlink" x="0px" y="0px"
	 viewBox="0 0 138.8 165.5" style="enable-background:new 0 0 138.8 165.5;" xml:space="preserve">
<style type="text/css">
	.st0{fill:#E5B9D6;}
	.st1{fill:#00778C;}
	.st2{fill:#FFFFFF;}
	.st3{fill:#454985;}
	.st4{fill:#FFFFFF;stroke:#DFF0F5;stroke-width:1.3779;stroke-linecap:round;stroke-linejoin:round;stroke-miterlimit:10;}
	.st5{fill:#3D456F;}
	.st6{fill:#E7B6D5;}
	.st7{fill:#C3E8F2;}
	.st8{fill:#FFFFFF;stroke:#DFF0F5;stroke-miterlimit:10;}
	.st9{fill:#3D456F;stroke:#DFF0F5;stroke-miterlimit:10;}
	.st10{fill:none;stroke:#454985;stroke-width:0.9347;stroke-linecap:round;stroke-miterlimit:10;}
	.st11{fill:#F5DBEA;}
	.st12{fill:#F594A3;}
</style>
<g>
	<path class="st0" d="M45.2,39.2c0,0-9,2.8-8.6,16.2c0.4,13.4-6.1,14.2-8.6,9.6c0,0-1.1,19.5,13,14.4S47.7,39,47.7,39L45.2,39.2z"/>
	<path class="st1" d="M47.4,143.8c0,0-27.5,12.9-36.2-13.5l8.3,1.9c0,0-0.3-8.4-11.1-15.6C-7.2,106,2.3,82.4,9.7,78.7
		c0,0-2.5,13.2,7.4,18.4S52.8,102.9,53,120C53.4,142.3,47.4,143.8,47.4,143.8z"/>
	<g>
		<path class="st2" d="M105.9,35.5c-1.9,1.9-8.4,5.2-10.3,3.3s1.3-8.4,3.3-10.3s5.1-1.9,7,0S107.8,33.6,105.9,35.5z"/>
		<path class="st3" d="M102.6,36.6c-1.3,1.3-5.7,3.6-7,2.2s0.9-5.7,2.2-7c1.3-1.3,3.5-1.3,4.8,0C103.9,33.1,103.9,35.3,102.6,36.6z"
			/>
	</g>
	<polyline class="st4" points="106.7,92.7 120.5,83.5 129.1,77.7 136.3,88.7 128.5,93.5 111.6,104 	"/>
	<polygon class="st5" points="129.1,77.7 136.3,88.7 128.5,93.5 120.5,83.5 	"/>
	<path class="st6" d="M92.5,36.7c0,0,15.7-5.4,10.4-20.5c0,0-1.2,11.1-12.8,6.2S55.6,15.8,50,26.5s-0.2,18.7-0.2,18.7L92.5,36.7z"/>
	<polygon class="st1" points="88.4,35.7 85,0 66.8,37.4 	"/>
	<polygon class="st7" points="90.7,146.6 95,160.6 96.5,165.5 103.9,163.4 103.1,158.3 100.7,143.7 	"/>
	<polygon class="st5" points="95,160.6 96.5,165.5 103.9,163.4 103.1,158.3 	"/>
	<g>
		<polygon class="st8" points="56.7,144.1 53.5,158.3 52.3,163.3 59.8,165.2 61.6,160.3 66.8,146.6 		"/>
		<polygon class="st9" points="53.5,158.3 52.3,163.3 59.8,165.2 61.6,160.3 		"/>
	</g>
	<path class="st8" d="M31.3,126.9c-0.1,11.2,8.9,20.4,20.2,20.4h54.8c1.9,0,3.7-0.3,5.4-0.7c9.9-2.7,16.5-12.7,14.4-23.3
		c-2-10-7.8-22-22-34c0,0,37.4,5.4,32-30.9C130.6,22.2,47.7,39,47.7,39S31.7,81,31.3,126.9z"/>
	<g>
		<g>
			<path class="st4" d="M121.6,46.5c0,0,1.8-13.4,10-9.7c8.2,3.7-4.3,12.3-4.3,12.3"/>
			<path class="st3" d="M125.3,47.4c0,0,6-3.1,3.5-5.3C126.2,39.8,125.3,47.4,125.3,47.4z"/>
		</g>
		<g>
			<path class="st4" d="M94,46.5c0,0-1.8-13.4-10-9.7c-8.2,3.7,4.3,12.3,4.3,12.3"/>
			<path class="st3" d="M90.3,47.4c0,0-6-3.1-3.5-5.3C89.4,39.8,90.3,47.4,90.3,47.4z"/>
		</g>
	</g>
	<g>
		<path class="st10" d="M72.9,39.4c0,2.1,1,3.7,2.3,3.7s2.3-1.7,2.3-3.7"/>
		<path class="st10" d="M97.9,39.4c0,2.1,1,3.7,2.3,3.7s2.3-1.7,2.3-3.7"/>
	</g>
	<g>
		<path class="st2" d="M38.7,38c1.9,1.9,8.4,5.2,10.3,3.3c1.9-1.9-1.3-8.4-3.3-10.3c-1.9-1.9-5.1-1.9-7,0C36.7,32.9,36.7,36,38.7,38
			z"/>
		<path class="st3" d="M42,39c1.3,1.3,5.7,3.6,7,2.2c1.3-1.3-0.9-5.7-2.2-7c-1.3-1.3-3.5-1.3-4.8,0C40.6,35.5,40.6,37.7,42,39z"/>
	</g>
	<path class="st11" d="M54.5,133.5c0,5,1.3,9.7,3.6,13.8h48.2c1.9,0,3.7-0.3,5.4-0.7c2-3.9,3.2-8.4,3.2-13.1
		c0-16.1-13.5-29.2-30.2-29.2C68.1,104.3,54.5,117.4,54.5,133.5z"/>
	<polyline class="st4" points="48.7,92.4 38.2,79.6 31.6,71.6 21.6,80 27.6,86.9 40.7,101.9 	"/>
	<polygon class="st5" points="31.6,71.6 21.6,80 27.6,86.9 38.2,79.6 	"/>
	<g>
		<path class="st3" d="M69,61.3c1.2,5.9,4.6,11.9,13.8,12.3c1.6,0.1,3.2,0,4.6-0.2c14.3-1.8,16.7-15.5,16.7-15.5s-25.1,7.3-35.1-8.1
			C68.9,49.8,67.8,55.5,69,61.3z"/>
		<path class="st12" d="M69,61.3c1.2,5.9,4.6,11.9,13.8,12.3c1.6,0.1,3.2,0,4.6-0.2C85.7,68.2,81.1,61.1,69,61.3z"/>
	</g>
</g>
</svg>
