<?xml version="1.0" encoding="utf-8"?>
<!-- Generator: Adobe Illustrator 23.0.3, SVG Export Plug-In . SVG Version: 6.00 Build 0)  -->
<svg version="1.1" id="Layer_1" xmlns="http://www.w3.org/2000/svg" xmlns:xlink="http://www.w3.org/1999/xlink" x="0px" y="0px"
	 viewBox="0 0 136 165.6" style="enable-background:new 0 0 136 165.6;" xml:space="preserve">
<style type="text/css">
	.st0{fill:#E5B9D6;}
	.st1{fill:#00778C;}
	.st2{fill:#FFFFFF;}
	.st3{fill:#454985;}
	.st4{fill:#FFFFFF;stroke:#DFF0F5;stroke-width:1.3779;stroke-linecap:round;stroke-linejoin:round;stroke-miterlimit:10;}
	.st5{fill:#3D456F;}
	.st6{fill:#E7B6D5;}
	.st7{fill:#C3E8F2;}
	.st8{fill:#FFFFFF;stroke:#DFF0F5;stroke-miterlimit:10;}
	.st9{fill:#3D456F;stroke:#DFF0F5;stroke-miterlimit:10;}
	.st10{fill:#F5DBEA;}
	.st11{fill:#F594A3;}
</style>
<g>
	<path class="st0" d="M97.9,39.2c0,0,9,2.8,8.6,16.2s6.1,14.2,8.6,9.6c0,0,1.1,19.5-13,14.4S95.3,39,95.3,39L97.9,39.2z"/>
	<path class="st1" d="M99.7,143.8c0,0,29.8,6,32-21.8l-7.6,3.8c0,0-1.7-8.2,7-17.8c12.6-13.9-2.2-34.6-10.3-36.4
		c0,0,5.5,12.2-2.8,19.6S84.8,105.4,88.6,122C93.5,143.8,99.7,143.8,99.7,143.8z"/>
	<g>
		<path class="st2" d="M37.2,35.5c1.9,1.9,8.4,5.2,10.3,3.3s-1.3-8.4-3.3-10.3s-5.1-1.9-7,0S35.3,33.6,37.2,35.5z"/>
		<path class="st3" d="M40.5,36.6c1.3,1.3,5.7,3.6,7,2.2s-0.9-5.7-2.2-7s-3.5-1.3-4.8,0S39.2,35.3,40.5,36.6z"/>
	</g>
	<g>
		<polyline class="st4" points="33.1,96.8 16.8,99.6 6.6,101.3 8.9,114.2 17.9,112.4 37.4,108.4 		"/>
		<polygon class="st5" points="6.6,101.3 8.9,114.2 17.9,112.4 16.8,99.6 		"/>
	</g>
	<path class="st6" d="M50.6,36.7c0,0-15.7-5.4-10.4-20.5c0,0,1.2,11.1,12.8,6.2s34.6-6.6,40.1,4.1s0.2,18.7,0.2,18.7L50.6,36.7z"/>
	<polygon class="st1" points="54.7,35.7 58.1,0 76.3,37.4 	"/>
	<polygon class="st7" points="52.4,143.9 52.1,158.4 52,163.6 44.2,163.6 43.6,158.4 42,143.8 	"/>
	<polygon class="st5" points="52.1,158.4 52,163.6 44.2,163.6 43.6,158.4 	"/>
	<g>
		<polygon class="st8" points="86.6,143.9 86.4,158.4 86.3,163.6 78.5,163.6 77.9,158.4 76.3,143.8 		"/>
		<polygon class="st9" points="86.4,158.4 86.3,163.6 78.5,163.6 77.9,158.4 		"/>
	</g>
	<path class="st8" d="M111.7,126.9c0.1,11.2-8.9,20.4-20.2,20.4H36.8c-1.9,0-3.7-0.3-5.4-0.7c-9.9-2.7-16.5-12.7-14.4-23.3
		c2-10,7.8-22,22-34c0,0-37.4,5.4-32-30.9C12.5,22.2,95.3,39,95.3,39S111.4,81,111.7,126.9z"/>
	<g>
		<g>
			<path class="st4" d="M14.4,59.3c0,0-1.8-13.4-10-9.7s4.3,12.3,4.3,12.3"/>
			<path class="st3" d="M10.7,60.1c0,0-6-3.1-3.5-5.3C9.8,52.6,10.7,60.1,10.7,60.1z"/>
		</g>
		<g>
			<path class="st4" d="M42,59.3c0,0,1.8-13.4,10-9.7s-4.3,12.3-4.3,12.3"/>
			<path class="st3" d="M45.7,60.1c0,0,6-3.1,3.5-5.3C46.6,52.6,45.7,60.1,45.7,60.1z"/>
		</g>
	</g>
	<g>
		<ellipse class="st3" cx="60.3" cy="46.4" rx="2.3" ry="3.7"/>
		<ellipse class="st3" cx="35.3" cy="46.4" rx="2.3" ry="3.7"/>
	</g>
	<g>
		<path class="st2" d="M104.4,38c-1.9,1.9-8.4,5.2-10.3,3.3s1.3-8.4,3.3-10.3c1.9-1.9,5.1-1.9,7,0C106.4,32.9,106.4,36,104.4,38z"/>
		<path class="st3" d="M101.1,39c-1.3,1.3-5.7,3.6-7,2.2c-1.3-1.3,0.9-5.7,2.2-7c1.3-1.3,3.5-1.3,4.8,0
			C102.5,35.5,102.5,37.7,101.1,39z"/>
	</g>
	<path class="st10" d="M88.6,133.5c0,5-1.3,9.7-3.6,13.8H36.8c-1.9,0-3.7-0.3-5.4-0.7c-2-3.9-3.2-8.4-3.2-13.1
		c0-16.1,13.5-29.2,30.2-29.2C75,104.3,88.6,117.4,88.6,133.5z"/>
	<g>
		<polyline class="st4" points="101.6,99.5 104.7,115.8 106.6,125.9 93.7,128.3 92.3,119.2 89.3,99.5 		"/>
		<polygon class="st5" points="106.6,125.9 93.7,128.3 92.3,119.2 104.7,115.8 		"/>
	</g>
	<g>
		<path class="st3" d="M74.2,71.6c-1.2,5.9-4.6,11.9-13.8,12.3c-1.6,0.1-3.2,0-4.6-0.2c-14.3-1.8-16.7-15.5-16.7-15.5
			s25.1,7.3,35.1-8.1C74.2,60.1,75.3,65.8,74.2,71.6z"/>
		<path class="st11" d="M74.2,71.6c-1.2,5.9-4.6,11.9-13.8,12.3c-1.6,0.1-3.2,0-4.6-0.2C57.5,78.5,62,71.4,74.2,71.6z"/>
	</g>
</g>
</svg>
