<?xml version="1.0" encoding="utf-8"?>
<!-- Generator: Adobe Illustrator 23.0.3, SVG Export Plug-In . SVG Version: 6.00 Build 0)  -->
<svg version="1.1" id="Layer_1" xmlns="http://www.w3.org/2000/svg" xmlns:xlink="http://www.w3.org/1999/xlink" x="0px" y="0px"
	 viewBox="0 0 178.4 243.4" style="enable-background:new 0 0 178.4 243.4;" xml:space="preserve">
<style type="text/css">
	.st0{fill:none;stroke:#F5DBEA;stroke-width:3;stroke-miterlimit:10;}
	.st1{fill:#222222;}
	.st2{font-family:'Lato-Regular';}
	.st3{font-size:21px;}
	.st4{fill:#E5B9D6;}
	.st5{fill:#00778C;}
	.st6{fill:#FFFFFF;}
	.st7{fill:#454985;}
	.st8{fill:#FFFFFF;stroke:#DFF0F5;stroke-width:1.3779;stroke-linecap:round;stroke-linejoin:round;stroke-miterlimit:10;}
	.st9{fill:#3D456F;}
	.st10{fill:#E7B6D5;}
	.st11{fill:#C3E8F2;}
	.st12{fill:#FFFFFF;stroke:#DFF0F5;stroke-miterlimit:10;}
	.st13{fill:#3D456F;stroke:#DFF0F5;stroke-miterlimit:10;}
	.st14{fill:#F5DBEA;}
	.st15{fill:#F594A3;}
</style>
<g>
	<path class="st0" d="M171.7,181.5c0-18-14.6-32.5-32.5-32.5c-1.2,0-2.4,0.1-3.5,0.2c-5.4-10.5-16.3-17.8-29-17.8
		c-9.5,0-18.1,4.1-24.1,10.7c-5.4-5-12.7-8.1-20.6-8.1c-13.3,0-24.6,8.5-28.7,20.4c-15.8,2.2-28,15.8-28,32.2
		c0,17.4,13.7,31.6,30.9,32.5c5.9,7.8,15.3,12.8,25.9,12.8c5.4,0,10.5-1.3,14.9-3.6c4.2,5.1,10.5,8.4,17.6,8.4
		c7.3,0,13.7-3.4,17.9-8.7c3.9,1.6,8.1,2.5,12.5,2.5c13.7,0,25.5-8.5,30.3-20.6C165,204.3,171.7,193.7,171.7,181.5z"/>
	<text transform="matrix(1 0 0 1 52.5261 195.2404)" class="st1 st2 st3">product</text>
</g>
<g>
	<path class="st4" d="M117.6,43.3c0,0,9,2.8,8.6,16.2s6.1,14.2,8.6,9.6c0,0,1.1,19.5-13,14.4S115,43.1,115,43.1L117.6,43.3z"/>
	<path class="st5" d="M119.4,147.9c0,0,29.8,6,32-21.8l-7.6,3.8c0,0-1.7-8.2,7-17.8c12.6-13.9-2.2-34.6-10.3-36.4
		c0,0,5.5,12.2-2.8,19.6s-33.2,14.2-29.4,30.8C113.2,147.9,119.4,147.9,119.4,147.9z"/>
	<g>
		<path class="st6" d="M56.9,39.6c1.9,1.9,8.4,5.2,10.3,3.3s-1.3-8.4-3.3-10.3c-2-1.9-5.1-1.9-7,0C55,34.5,55,37.7,56.9,39.6z"/>
		<path class="st7" d="M60.2,40.7c1.3,1.3,5.7,3.6,7,2.2c1.3-1.4-0.9-5.7-2.2-7c-1.3-1.3-3.5-1.3-4.8,0S58.9,39.4,60.2,40.7z"/>
	</g>
	<g>
		<polyline class="st8" points="52.8,100.9 36.5,103.7 26.3,105.4 28.6,118.3 37.6,116.5 57.1,112.5 		"/>
		<polygon class="st9" points="26.3,105.4 28.6,118.3 37.6,116.5 36.5,103.7 		"/>
	</g>
	<path class="st10" d="M70.3,40.8c0,0-15.7-5.4-10.4-20.5c0,0,1.2,11.1,12.8,6.2s34.6-6.6,40.1,4.1s0.2,18.7,0.2,18.7L70.3,40.8z"/>
	<polygon class="st5" points="74.4,39.8 77.8,4.1 96,41.5 	"/>
	<polygon class="st11" points="72.1,148 71.8,162.5 71.7,167.7 63.9,167.7 63.3,162.5 61.7,147.9 	"/>
	<polygon class="st9" points="71.8,162.5 71.7,167.7 63.9,167.7 63.3,162.5 	"/>
	<g>
		<polygon class="st12" points="106.3,148 106.1,162.5 106,167.7 98.2,167.7 97.6,162.5 96,147.9 		"/>
		<polygon class="st13" points="106.1,162.5 106,167.7 98.2,167.7 97.6,162.5 		"/>
	</g>
	<path class="st12" d="M131.4,131c0.1,11.2-8.9,20.4-20.2,20.4H56.5c-1.9,0-3.7-0.3-5.4-0.7c-9.9-2.7-16.5-12.7-14.4-23.3
		c2-10,7.8-22,22-34c0,0-37.4,5.4-32-30.9C32.2,26.3,115,43.1,115,43.1S131.1,85.1,131.4,131z"/>
	<g>
		<g>
			<path class="st8" d="M34.1,63.4c0,0-1.8-13.4-10-9.7S28.4,66,28.4,66"/>
			<path class="st7" d="M30.4,64.2c0,0-6-3.1-3.5-5.3C29.5,56.7,30.4,64.2,30.4,64.2z"/>
		</g>
		<g>
			<path class="st8" d="M61.7,63.4c0,0,1.8-13.4,10-9.7S67.4,66,67.4,66"/>
			<path class="st7" d="M65.4,64.2c0,0,6-3.1,3.5-5.3C66.3,56.7,65.4,64.2,65.4,64.2z"/>
		</g>
	</g>
	<g>
		<ellipse class="st7" cx="80" cy="50.5" rx="2.3" ry="3.7"/>
		<ellipse class="st7" cx="55" cy="50.5" rx="2.3" ry="3.7"/>
	</g>
	<g>
		<path class="st6" d="M124.1,42.1c-1.9,1.9-8.4,5.2-10.3,3.3s1.3-8.4,3.3-10.3c1.9-1.9,5.1-1.9,7,0C126.1,37,126.1,40.1,124.1,42.1
			z"/>
		<path class="st7" d="M120.8,43.1c-1.3,1.3-5.7,3.6-7,2.2c-1.3-1.3,0.9-5.7,2.2-7c1.3-1.3,3.5-1.3,4.8,0
			C122.2,39.6,122.2,41.8,120.8,43.1z"/>
	</g>
	<path class="st14" d="M108.3,137.6c0,5-1.3,9.7-3.6,13.8H56.5c-1.9,0-3.7-0.3-5.4-0.7c-2-3.9-3.2-8.4-3.2-13.1
		c0-16.1,13.5-29.2,30.2-29.2C94.7,108.4,108.3,121.5,108.3,137.6z"/>
	<g>
		<polyline class="st8" points="121.3,103.6 124.4,119.9 126.3,130 113.4,132.4 112,123.3 109,103.6 		"/>
		<polygon class="st9" points="126.3,130 113.4,132.4 112,123.3 124.4,119.9 		"/>
	</g>
	<g>
		<path class="st7" d="M93.9,75.7c-1.2,5.9-4.6,11.9-13.8,12.3c-1.6,0.1-3.2,0-4.6-0.2C61.2,86,58.8,72.3,58.8,72.3
			s25.1,7.3,35.1-8.1C93.9,64.2,95,69.9,93.9,75.7z"/>
		<path class="st15" d="M93.9,75.7c-1.2,5.9-4.6,11.9-13.8,12.3c-1.6,0.1-3.2,0-4.6-0.2C77.2,82.6,81.7,75.5,93.9,75.7z"/>
	</g>
</g>
</svg>
